<?xml version="1.0" encoding="UTF-8"?>
<!DOCTYPE svg PUBLIC "-//W3C//DTD SVG 1.1//EN" "http://www.w3.org/Graphics/SVG/1.1/DTD/svg11.dtd">
<!-- Creator: CorelDRAW 2018 (64-Bit Evaluation Version) -->
<svg xmlns="http://www.w3.org/2000/svg" xml:space="preserve" width="62.5607mm" height="11.3867mm" version="1.1" style="shape-rendering:geometricPrecision; text-rendering:geometricPrecision; image-rendering:optimizeQuality; fill-rule:evenodd; clip-rule:evenodd"
viewBox="0 0 6256.06 1138.67"
 xmlns:xlink="http://www.w3.org/1999/xlink">
 <defs>
  <style type="text/css">
   <![CDATA[
    .fil1 {fill:white}
    .fil0 {fill:white;fill-rule:nonzero}
   ]]>
  </style>
 </defs>
 <g id="Layer_x0020_1">
  <metadata id="CorelCorpID_0Corel-Layer"/>
  <g id="_2330211068048">
   <g>
    <path class="fil0" d="M1397.81 1063.8c0,11.86 -2.21,22.44 -6.57,31.74 -4.42,9.24 -10.51,17.15 -18.28,23.64 -7.76,6.43 -16.94,11.32 -27.45,14.6 -10.58,3.28 -21.9,4.89 -34.08,4.89 -8.51,0 -16.41,-0.74 -23.64,-2.15 -7.3,-1.47 -13.79,-3.28 -19.48,-5.35 -5.7,-2.08 -10.45,-4.29 -14.33,-6.5 -3.82,-2.28 -6.57,-4.15 -8.04,-5.76 -1.54,-1.54 -2.61,-3.55 -3.35,-5.96 -0.73,-2.41 -1.07,-5.62 -1.07,-9.64 0,-2.88 0.14,-5.29 0.4,-7.16 0.27,-1.88 0.67,-3.42 1.14,-4.56 0.54,-1.2 1.21,-2.01 2.01,-2.47 0.8,-0.47 1.67,-0.67 2.75,-0.67 1.8,0 4.42,1.13 7.76,3.34 3.28,2.21 7.57,4.62 12.86,7.24 5.22,2.54 11.52,5.02 18.95,7.29 7.36,2.28 15.94,3.42 25.58,3.42 7.36,0 14.06,-1.01 20.15,-2.95 6.1,-1.94 11.32,-4.68 15.67,-8.3 4.42,-3.55 7.77,-7.97 10.11,-13.19 2.35,-5.22 3.55,-11.18 3.55,-17.81 0,-7.17 -1.61,-13.33 -4.89,-18.42 -3.28,-5.09 -7.56,-9.57 -12.92,-13.46 -5.42,-3.81 -11.52,-7.36 -18.35,-10.58 -6.89,-3.21 -13.92,-6.42 -21.09,-9.77 -7.16,-3.35 -14.19,-7.03 -20.96,-11.12 -6.83,-4.01 -12.92,-8.77 -18.28,-14.26 -5.35,-5.49 -9.71,-11.92 -12.99,-19.35 -3.35,-7.37 -5.02,-16.21 -5.02,-26.52 0,-10.64 1.94,-20.08 5.76,-28.39 3.88,-8.23 9.24,-15.2 16.07,-20.82 6.9,-5.63 15.06,-9.91 24.51,-12.86 9.5,-2.95 19.68,-4.42 30.66,-4.42 5.63,0 11.25,0.47 16.94,1.47 5.7,1.01 11.05,2.28 16.08,3.96 5.02,1.6 9.5,3.48 13.45,5.49 3.89,2.01 6.5,3.68 7.7,4.88 1.28,1.28 2.08,2.21 2.48,2.95 0.4,0.74 0.67,1.67 0.94,2.75 0.27,1.13 0.47,2.47 0.6,4.08 0.14,1.54 0.2,3.55 0.2,6.09 0,2.35 -0.06,4.42 -0.26,6.3 -0.21,1.81 -0.54,3.35 -0.94,4.62 -0.34,1.2 -0.94,2.14 -1.61,2.74 -0.74,0.61 -1.54,0.87 -2.48,0.87 -1.47,0 -3.68,-0.93 -6.76,-2.74 -3.08,-1.88 -6.83,-3.88 -11.32,-6.23 -4.42,-2.28 -9.71,-4.35 -15.8,-6.23 -6.03,-1.94 -12.86,-2.87 -20.49,-2.87 -7.03,0 -13.19,0.93 -18.41,2.81 -5.23,1.94 -9.58,4.42 -12.99,7.56 -3.35,3.15 -5.9,6.83 -7.64,11.12 -1.67,4.35 -2.54,8.9 -2.54,13.73 0,7.03 1.61,13.12 4.89,18.21 3.28,5.09 7.63,9.57 13.05,13.53 5.5,3.95 11.66,7.49 18.62,10.78 6.9,3.28 13.99,6.56 21.23,9.91 7.16,3.34 14.26,6.96 21.16,10.98 6.96,3.95 13.12,8.7 18.61,14.13 5.42,5.42 9.78,11.78 13.12,19.21 3.35,7.37 5.03,16.07 5.03,26.18zm230.81 66.16c0,1.07 -0.27,2.01 -0.8,2.75 -0.54,0.8 -1.41,1.4 -2.75,1.87 -1.34,0.47 -3.08,0.87 -5.22,1.21 -2.21,0.33 -4.82,0.47 -7.97,0.47 -3.48,0 -6.23,-0.14 -8.3,-0.47 -2.15,-0.34 -3.82,-0.74 -5.16,-1.21 -1.34,-0.47 -2.21,-1.07 -2.75,-1.87 -0.53,-0.74 -0.8,-1.68 -0.8,-2.75l0 -112.63 -115.3 0 0 112.63c0,1.07 -0.27,2.01 -0.81,2.75 -0.53,0.8 -1.4,1.4 -2.74,1.87 -1.28,0.47 -3.02,0.87 -5.16,1.21 -2.21,0.33 -4.89,0.47 -8.17,0.47 -3.15,0 -5.82,-0.14 -8.03,-0.47 -2.21,-0.34 -4.02,-0.74 -5.29,-1.21 -1.34,-0.47 -2.21,-1.07 -2.75,-1.87 -0.53,-0.74 -0.8,-1.68 -0.8,-2.75l0 -243.73c0,-1.07 0.27,-2.01 0.8,-2.75 0.54,-0.8 1.41,-1.4 2.75,-1.87 1.27,-0.47 3.08,-0.87 5.29,-1.21 2.21,-0.33 4.88,-0.47 8.03,-0.47 3.28,0 5.96,0.14 8.17,0.47 2.14,0.34 3.88,0.74 5.16,1.21 1.34,0.47 2.21,1.07 2.74,1.87 0.54,0.8 0.81,1.68 0.81,2.75l0 101.78 115.3 0 0 -101.78c0,-1.07 0.27,-1.95 0.8,-2.75 0.54,-0.8 1.41,-1.4 2.75,-1.87 1.34,-0.47 3.01,-0.87 5.16,-1.21 2.07,-0.33 4.82,-0.47 8.3,-0.47 3.15,0 5.76,0.14 7.97,0.47 2.14,0.34 3.88,0.74 5.22,1.21 1.34,0.47 2.21,1.07 2.75,1.87 0.53,0.74 0.8,1.68 0.8,2.75l0 243.73zm257.6 -6.83c1,2.88 1.6,5.16 1.67,6.96 0.07,1.75 -0.47,3.09 -1.47,4.02 -1.07,0.87 -2.81,1.48 -5.22,1.74 -2.42,0.27 -5.63,0.41 -9.71,0.41 -4.02,0 -7.3,-0.07 -9.71,-0.27 -2.41,-0.2 -4.22,-0.54 -5.49,-1.01 -1.28,-0.47 -2.15,-1.07 -2.75,-1.87 -0.6,-0.81 -1.14,-1.74 -1.67,-2.95l-21.77 -61.8 -105.52 0 -20.83 61c-0.4,1.2 -0.87,2.21 -1.54,3.08 -0.67,0.87 -1.61,1.54 -2.88,2.14 -1.2,0.6 -3.01,1.01 -5.29,1.27 -2.27,0.27 -5.22,0.41 -8.9,0.41 -3.82,0 -6.9,-0.14 -9.31,-0.47 -2.41,-0.34 -4.15,-0.94 -5.09,-1.88 -1,-0.94 -1.47,-2.27 -1.41,-4.02 0.07,-1.8 0.61,-4.08 1.68,-6.96l85.1 -235.9c0.54,-1.47 1.28,-2.68 2.08,-3.55 0.87,-0.94 2.08,-1.67 3.75,-2.14 1.61,-0.54 3.68,-0.94 6.29,-1.14 2.55,-0.2 5.76,-0.27 9.71,-0.27 4.15,0 7.64,0.07 10.38,0.27 2.75,0.2 4.96,0.6 6.63,1.14 1.74,0.47 3.01,1.27 3.95,2.21 0.94,1 1.68,2.21 2.14,3.61l85.18 235.97zm-109.28 -208.24l-0.2 0 -43.73 126.55 88.26 0 -44.33 -126.55zm321.01 215.07c0,1.07 -0.2,1.94 -0.6,2.75 -0.4,0.8 -1.21,1.47 -2.55,2.01 -1.27,0.46 -3.14,0.87 -5.49,1.13 -2.34,0.27 -5.49,0.41 -9.37,0.41 -3.42,0 -6.23,-0.14 -8.37,-0.41 -2.15,-0.26 -3.89,-0.67 -5.23,-1.27 -1.27,-0.6 -2.27,-1.4 -3.01,-2.48 -0.74,-1 -1.34,-2.34 -1.87,-3.88l-23.31 -59.93c-2.74,-6.83 -5.62,-13.06 -8.57,-18.75 -2.94,-5.69 -6.42,-10.58 -10.51,-14.73 -4.02,-4.15 -8.84,-7.3 -14.33,-9.64 -5.49,-2.28 -12.12,-3.42 -19.82,-3.42l-22.56 0 0 108.21c0,1.07 -0.27,1.94 -0.87,2.75 -0.61,0.8 -1.54,1.4 -2.75,1.87 -1.27,0.47 -2.95,0.87 -5.09,1.21 -2.21,0.33 -4.89,0.47 -8.17,0.47 -3.28,0 -5.96,-0.14 -8.17,-0.47 -2.14,-0.34 -3.88,-0.74 -5.15,-1.21 -1.34,-0.47 -2.21,-1.07 -2.75,-1.87 -0.53,-0.74 -0.8,-1.68 -0.8,-2.75l0 -235.1c0,-5.08 1.34,-8.63 4.02,-10.71 2.67,-2.01 5.55,-3.01 8.57,-3.01l53.97 0c6.42,0 11.71,0.13 16,0.47 4.22,0.33 8.03,0.73 11.45,1.07 9.84,1.74 18.48,4.42 26.05,8.03 7.5,3.69 13.79,8.31 18.88,13.93 5.16,5.63 8.97,12.05 11.52,19.35 2.54,7.23 3.81,15.27 3.81,24.04 0,8.44 -1.13,16.07 -3.41,22.83 -2.34,6.7 -5.63,12.66 -9.91,17.82 -4.35,5.15 -9.51,9.64 -15.54,13.45 -6.02,3.75 -12.72,6.97 -20.22,9.58 4.22,1.87 7.97,4.15 11.39,6.96 3.41,2.82 6.56,6.23 9.5,10.11 2.95,3.96 5.76,8.51 8.37,13.6 2.61,5.09 5.23,10.84 7.84,17.27l22.76 55.98c1.81,4.69 3.02,8.04 3.49,9.91 0.53,1.88 0.8,3.35 0.8,4.42zm-50.82 -178.51c0,-9.91 -2.21,-18.35 -6.7,-25.25 -4.42,-6.83 -11.85,-11.78 -22.36,-14.8 -3.28,-0.93 -6.97,-1.54 -11.05,-1.94 -4.15,-0.4 -9.51,-0.6 -16.21,-0.6l-28.45 0 0 85.57 32.94 0c8.91,0 16.61,-1.07 23.1,-3.21 6.43,-2.21 11.85,-5.22 16.14,-9.04 4.35,-3.88 7.5,-8.44 9.57,-13.66 2.01,-5.22 3.02,-10.91 3.02,-17.07zm255.52 4.08c0,12.72 -2.08,24.17 -6.29,34.42 -4.16,10.18 -10.11,18.88 -17.95,26.11 -7.77,7.17 -17.27,12.72 -28.59,16.68 -11.32,3.95 -24.78,5.89 -40.51,5.89l-28.79 0 0 91.33c0,1.07 -0.27,2.01 -0.87,2.75 -0.61,0.8 -1.54,1.4 -2.75,1.87 -1.27,0.47 -2.95,0.87 -5.09,1.21 -2.21,0.33 -4.89,0.47 -8.17,0.47 -3.28,0 -5.96,-0.14 -8.17,-0.47 -2.14,-0.34 -3.88,-0.74 -5.15,-1.21 -1.34,-0.47 -2.21,-1.07 -2.75,-1.87 -0.53,-0.74 -0.8,-1.68 -0.8,-2.75l0 -234.29c0,-5.22 1.4,-8.97 4.15,-11.18 2.74,-2.21 5.76,-3.35 9.17,-3.35l54.31 0c5.49,0 10.78,0.2 15.8,0.67 5.02,0.47 10.98,1.47 17.81,2.94 6.9,1.54 13.86,4.36 21.03,8.44 7.09,4.15 13.12,9.24 18.14,15.27 4.96,6.02 8.77,12.99 11.45,20.89 2.68,7.9 4.02,16.67 4.02,26.18zm-35.35 2.68c0,-10.38 -1.95,-19.02 -5.76,-25.98 -3.89,-6.9 -8.64,-12.12 -14.4,-15.54 -5.69,-3.34 -11.58,-5.55 -17.61,-6.42 -6.09,-0.94 -12.05,-1.41 -17.81,-1.41l-31.2 0 0 102.05 30.46 0c10.18,0 18.68,-1.34 25.38,-3.95 6.76,-2.62 12.39,-6.23 17.01,-10.92 4.55,-4.62 8.03,-10.18 10.38,-16.67 2.34,-6.5 3.55,-13.53 3.55,-21.16zm228.47 162.85c0,2.41 -0.14,4.48 -0.4,6.22 -0.27,1.74 -0.74,3.22 -1.34,4.42 -0.67,1.21 -1.41,2.01 -2.28,2.55 -0.87,0.53 -1.81,0.8 -2.88,0.8l-121.93 0c-3.02,0 -5.9,-1 -8.57,-3.01 -2.68,-2.08 -4.02,-5.63 -4.02,-10.72l0 -226.46c0,-5.08 1.34,-8.63 4.02,-10.71 2.67,-2.01 5.55,-3.01 8.57,-3.01l120.52 0c1.08,0 2.01,0.27 2.88,0.8 0.87,0.54 1.54,1.34 2.08,2.55 0.47,1.2 0.94,2.67 1.27,4.42 0.34,1.74 0.47,3.95 0.47,6.56 0,2.41 -0.13,4.42 -0.47,6.22 -0.33,1.75 -0.8,3.22 -1.27,4.36 -0.54,1.07 -1.27,1.87 -2.08,2.41 -0.87,0.53 -1.8,0.8 -2.88,0.8l-99.36 0 0 79.55 85.3 0c1.07,0 2.01,0.27 2.88,0.87 0.81,0.6 1.54,1.41 2.14,2.48 0.61,1.07 1.01,2.47 1.28,4.28 0.26,1.88 0.4,4.02 0.4,6.5 0,2.41 -0.14,4.42 -0.4,6.09 -0.27,1.74 -0.67,3.08 -1.28,4.15 -0.6,1.07 -1.33,1.81 -2.14,2.28 -0.87,0.47 -1.81,0.67 -2.88,0.67l-85.3 0 0 90.8 100.77 0c1.07,0 2.01,0.26 2.88,0.8 0.87,0.54 1.61,1.34 2.28,2.41 0.6,1.14 1.07,2.61 1.34,4.35 0.26,1.74 0.4,3.95 0.4,6.57zm246.81 -0.14c0,2.61 -0.47,4.89 -1.34,6.7 -0.87,1.81 -2.01,3.35 -3.42,4.48 -1.4,1.21 -3.01,2.01 -4.75,2.55 -1.81,0.53 -3.55,0.8 -5.29,0.8l-11.18 0c-3.48,0 -6.56,-0.33 -9.24,-1.07 -2.61,-0.74 -5.09,-2.01 -7.5,-3.88 -2.34,-1.88 -4.76,-4.42 -7.1,-7.64 -2.34,-3.21 -4.89,-7.43 -7.57,-12.52l-77.54 -144.43c-4.08,-7.43 -8.16,-15.27 -12.25,-23.44 -4.15,-8.17 -7.97,-16.13 -11.52,-23.83l-0.4 0c0.27,9.37 0.47,19.01 0.6,28.86 0.14,9.77 0.21,19.55 0.21,29.19l0 153.27c0,0.94 -0.27,1.81 -0.81,2.68 -0.6,0.8 -1.54,1.47 -2.81,1.94 -1.34,0.47 -3.01,0.87 -5.16,1.21 -2.14,0.33 -4.88,0.47 -8.17,0.47 -3.34,0 -6.09,-0.14 -8.23,-0.47 -2.14,-0.34 -3.82,-0.74 -5.02,-1.21 -1.28,-0.47 -2.15,-1.14 -2.75,-1.94 -0.53,-0.87 -0.8,-1.74 -0.8,-2.68l0 -234.29c0,-5.22 1.47,-8.97 4.48,-11.18 2.95,-2.21 6.16,-3.35 9.71,-3.35l16.61 0c3.88,0 7.16,0.33 9.78,1 2.67,0.6 5.02,1.74 7.09,3.22 2.08,1.47 4.15,3.61 6.1,6.29 1.94,2.68 4.01,6.03 6.16,10.11l59.59 111.42c3.68,6.83 7.23,13.46 10.65,19.96 3.41,6.49 6.76,12.85 9.91,19.15 3.15,6.22 6.29,12.45 9.37,18.55 3.15,6.02 6.16,12.18 9.24,18.34l0.2 0c-0.26,-10.38 -0.46,-21.09 -0.53,-32.27 -0.07,-11.18 -0.07,-21.97 -0.07,-32.28l0 -137.6c0,-0.94 0.27,-1.81 0.8,-2.54 0.61,-0.81 1.54,-1.48 2.82,-2.08 1.34,-0.6 3.08,-1 5.15,-1.27 2.15,-0.27 4.96,-0.4 8.44,-0.4 3.01,0 5.62,0.13 7.83,0.4 2.21,0.27 3.95,0.67 5.16,1.27 1.27,0.6 2.14,1.27 2.75,2.08 0.53,0.73 0.8,1.6 0.8,2.54l0 233.89zm208.72 0.14c0,2.41 -0.14,4.48 -0.4,6.22 -0.27,1.74 -0.74,3.22 -1.34,4.42 -0.67,1.21 -1.41,2.01 -2.28,2.55 -0.87,0.53 -1.81,0.8 -2.88,0.8l-121.93 0c-3.02,0 -5.9,-1 -8.57,-3.01 -2.68,-2.08 -4.02,-5.63 -4.02,-10.72l0 -226.46c0,-5.08 1.34,-8.63 4.02,-10.71 2.67,-2.01 5.55,-3.01 8.57,-3.01l120.52 0c1.08,0 2.01,0.27 2.88,0.8 0.87,0.54 1.54,1.34 2.08,2.55 0.47,1.2 0.94,2.67 1.27,4.42 0.34,1.74 0.47,3.95 0.47,6.56 0,2.41 -0.13,4.42 -0.47,6.22 -0.33,1.75 -0.8,3.22 -1.27,4.36 -0.54,1.07 -1.27,1.87 -2.08,2.41 -0.87,0.53 -1.8,0.8 -2.88,0.8l-99.36 0 0 79.55 85.3 0c1.07,0 2.01,0.27 2.88,0.87 0.81,0.6 1.54,1.41 2.14,2.48 0.61,1.07 1.01,2.47 1.28,4.28 0.26,1.88 0.4,4.02 0.4,6.5 0,2.41 -0.14,4.42 -0.4,6.09 -0.27,1.74 -0.67,3.08 -1.28,4.15 -0.6,1.07 -1.33,1.81 -2.14,2.28 -0.87,0.47 -1.81,0.67 -2.88,0.67l-85.3 0 0 90.8 100.77 0c1.07,0 2.01,0.26 2.88,0.8 0.87,0.54 1.61,1.34 2.28,2.41 0.6,1.14 1.07,2.61 1.34,4.35 0.26,1.74 0.4,3.95 0.4,6.57zm250.02 -116.72c0,21.97 -2.81,41.18 -8.43,57.59 -5.63,16.47 -13.86,30.06 -24.65,40.85 -10.78,10.78 -24.03,18.88 -39.7,24.23 -15.74,5.36 -34.42,8.04 -56.11,8.04l-53.77 0c-3.02,0 -5.9,-1 -8.57,-3.01 -2.68,-2.08 -4.02,-5.63 -4.02,-10.72l0 -226.46c0,-5.08 1.34,-8.63 4.02,-10.71 2.67,-2.01 5.55,-3.01 8.57,-3.01l57.45 0c22.03,0 40.58,2.81 55.78,8.5 15.13,5.69 27.85,13.93 38.16,24.58 10.25,10.64 18.02,23.57 23.3,38.77 5.29,15.13 7.97,32.27 7.97,51.35zm-35.35 1.48c0,-13.73 -1.68,-26.52 -5.09,-38.37 -3.42,-11.85 -8.77,-22.1 -16,-30.74 -7.3,-8.63 -16.48,-15.33 -27.66,-20.22 -11.11,-4.82 -25.44,-7.23 -42.99,-7.23l-34.41 0 0 197.67 34.75 0c16.27,0 29.93,-2.01 41.11,-6.1 11.12,-4.01 20.42,-10.24 27.86,-18.61 7.5,-8.37 13.12,-18.88 16.8,-31.54 3.75,-12.59 5.63,-27.59 5.63,-44.86zm211.8 124.14c0,1.07 -0.27,2.01 -0.81,2.75 -0.53,0.8 -1.4,1.4 -2.74,1.87 -1.28,0.47 -3.02,0.87 -5.16,1.21 -2.21,0.33 -4.89,0.47 -8.17,0.47 -3.15,0 -5.82,-0.14 -8.03,-0.47 -2.21,-0.34 -4.02,-0.74 -5.29,-1.21 -1.34,-0.47 -2.21,-1.07 -2.75,-1.87 -0.53,-0.74 -0.8,-1.68 -0.8,-2.75l0 -243.73c0,-1.07 0.27,-2.01 0.87,-2.75 0.6,-0.8 1.61,-1.4 2.94,-1.87 1.41,-0.47 3.15,-0.87 5.29,-1.21 2.15,-0.33 4.76,-0.47 7.77,-0.47 3.28,0 5.96,0.14 8.17,0.47 2.14,0.34 3.88,0.74 5.16,1.21 1.34,0.47 2.21,1.07 2.74,1.87 0.54,0.74 0.81,1.68 0.81,2.75l0 243.73zm259.53 -9.04c0,2.61 -0.47,4.89 -1.34,6.7 -0.87,1.81 -2.01,3.35 -3.42,4.48 -1.4,1.21 -3.01,2.01 -4.75,2.55 -1.81,0.53 -3.55,0.8 -5.29,0.8l-11.18 0c-3.48,0 -6.56,-0.33 -9.24,-1.07 -2.61,-0.74 -5.09,-2.01 -7.5,-3.88 -2.34,-1.88 -4.76,-4.42 -7.1,-7.64 -2.34,-3.21 -4.89,-7.43 -7.57,-12.52l-77.54 -144.43c-4.08,-7.43 -8.16,-15.27 -12.25,-23.44 -4.15,-8.17 -7.97,-16.13 -11.52,-23.83l-0.4 0c0.27,9.37 0.47,19.01 0.6,28.86 0.14,9.77 0.21,19.55 0.21,29.19l0 153.27c0,0.94 -0.27,1.81 -0.81,2.68 -0.6,0.8 -1.54,1.47 -2.81,1.94 -1.34,0.47 -3.01,0.87 -5.16,1.21 -2.14,0.33 -4.88,0.47 -8.17,0.47 -3.34,0 -6.09,-0.14 -8.23,-0.47 -2.14,-0.34 -3.82,-0.74 -5.02,-1.21 -1.28,-0.47 -2.15,-1.14 -2.75,-1.94 -0.53,-0.87 -0.8,-1.74 -0.8,-2.68l0 -234.29c0,-5.22 1.47,-8.97 4.48,-11.18 2.95,-2.21 6.16,-3.35 9.71,-3.35l16.61 0c3.88,0 7.16,0.33 9.78,1 2.67,0.6 5.02,1.74 7.09,3.22 2.08,1.47 4.15,3.61 6.1,6.29 1.94,2.68 4.01,6.03 6.16,10.11l59.59 111.42c3.68,6.83 7.23,13.46 10.65,19.96 3.41,6.49 6.76,12.85 9.91,19.15 3.15,6.22 6.29,12.45 9.37,18.55 3.15,6.02 6.16,12.18 9.24,18.34l0.2 0c-0.26,-10.38 -0.46,-21.09 -0.53,-32.27 -0.07,-11.18 -0.07,-21.97 -0.07,-32.28l0 -137.6c0,-0.94 0.27,-1.81 0.8,-2.54 0.61,-0.81 1.54,-1.48 2.82,-2.08 1.34,-0.6 3.08,-1 5.15,-1.27 2.15,-0.27 4.96,-0.4 8.44,-0.4 3.01,0 5.62,0.13 7.83,0.4 2.21,0.27 3.95,0.67 5.16,1.27 1.27,0.6 2.14,1.27 2.75,2.08 0.53,0.73 0.8,1.6 0.8,2.54l0 233.89zm226.39 -225.32c0,2.48 -0.13,4.62 -0.4,6.43 -0.26,1.81 -0.67,3.28 -1.27,4.42 -0.6,1.07 -1.27,1.94 -2.14,2.41 -0.87,0.53 -1.81,0.8 -2.81,0.8l-71.32 0 0 220.3c0,1.07 -0.26,1.94 -0.8,2.75 -0.54,0.8 -1.41,1.4 -2.75,1.87 -1.27,0.47 -3.01,0.87 -5.15,1.21 -2.21,0.33 -4.89,0.47 -8.17,0.47 -3.15,0 -5.83,-0.14 -8.04,-0.47 -2.21,-0.34 -4.01,-0.74 -5.29,-1.21 -1.33,-0.47 -2.21,-1.07 -2.74,-1.87 -0.54,-0.81 -0.8,-1.68 -0.8,-2.75l0 -220.3 -71.32 0c-1,0 -1.94,-0.27 -2.81,-0.8 -0.87,-0.47 -1.54,-1.34 -2.07,-2.41 -0.47,-1.14 -0.94,-2.61 -1.28,-4.42 -0.33,-1.81 -0.47,-3.95 -0.47,-6.43 0,-2.48 0.14,-4.69 0.47,-6.56 0.34,-1.88 0.81,-3.42 1.28,-4.55 0.53,-1.21 1.2,-2.08 2.07,-2.55 0.87,-0.53 1.81,-0.8 2.81,-0.8l176.38 0c1,0 1.94,0.27 2.81,0.8 0.87,0.47 1.54,1.34 2.14,2.55 0.6,1.13 1.01,2.67 1.27,4.55 0.27,1.87 0.4,4.08 0.4,6.56zm227.53 145.57c0,15.4 -2.27,29.2 -6.76,41.32 -4.49,12.05 -10.98,22.29 -19.35,30.66 -8.37,8.37 -18.55,14.74 -30.6,19.02 -11.99,4.35 -25.65,6.5 -40.98,6.5 -14,0 -26.72,-2.01 -38.23,-6.1 -11.52,-4.02 -21.37,-10.04 -29.6,-17.94 -8.24,-7.9 -14.6,-17.81 -19.02,-29.73 -4.48,-11.85 -6.69,-25.58 -6.69,-41.18l0 -157.49c0,-1.07 0.26,-2.01 0.8,-2.75 0.54,-0.8 1.41,-1.4 2.74,-1.87 1.34,-0.47 3.02,-0.87 5.16,-1.21 2.08,-0.33 4.82,-0.47 8.3,-0.47 3.15,0 5.83,0.14 8.04,0.47 2.28,0.34 4.02,0.74 5.22,1.21 1.27,0.47 2.14,1.07 2.68,1.87 0.54,0.74 0.8,1.68 0.8,2.75l0 153.34c0,11.71 1.41,22.02 4.29,30.73 2.88,8.77 7.03,16.07 12.45,21.9 5.36,5.82 11.92,10.17 19.56,13.12 7.56,2.95 16.13,4.42 25.71,4.42 9.71,0 18.41,-1.41 26.05,-4.29 7.63,-2.88 14.06,-7.23 19.35,-12.99 5.29,-5.76 9.31,-12.85 12.12,-21.36 2.81,-8.5 4.22,-18.41 4.22,-29.79l0 -155.08c0,-1.07 0.26,-2.01 0.8,-2.75 0.54,-0.8 1.41,-1.4 2.74,-1.87 1.34,-0.47 3.09,-0.87 5.23,-1.21 2.21,-0.33 4.89,-0.47 8.23,-0.47 3.15,0 5.76,0.14 7.97,0.47 2.14,0.34 3.89,0.74 5.09,1.21 1.27,0.47 2.21,1.07 2.81,1.87 0.61,0.74 0.87,1.68 0.87,2.75l0 154.94zm100.72 88.79c0,1.07 -0.27,2.01 -0.81,2.75 -0.53,0.8 -1.4,1.4 -2.74,1.87 -1.28,0.47 -3.02,0.87 -5.16,1.21 -2.21,0.33 -4.89,0.47 -8.17,0.47 -3.15,0 -5.82,-0.14 -8.03,-0.47 -2.21,-0.34 -4.02,-0.74 -5.29,-1.21 -1.34,-0.47 -2.21,-1.07 -2.75,-1.87 -0.53,-0.74 -0.8,-1.68 -0.8,-2.75l0 -243.73c0,-1.07 0.27,-2.01 0.87,-2.75 0.6,-0.8 1.61,-1.4 2.94,-1.87 1.41,-0.47 3.15,-0.87 5.29,-1.21 2.15,-0.33 4.76,-0.47 7.77,-0.47 3.28,0 5.96,0.14 8.17,0.47 2.14,0.34 3.88,0.74 5.16,1.21 1.34,0.47 2.21,1.07 2.74,1.87 0.54,0.74 0.81,1.68 0.81,2.75l0 243.73zm226.58 -234.36c0,2.48 -0.13,4.62 -0.4,6.43 -0.26,1.81 -0.67,3.28 -1.27,4.42 -0.6,1.07 -1.27,1.94 -2.14,2.41 -0.87,0.53 -1.81,0.8 -2.81,0.8l-71.32 0 0 220.3c0,1.07 -0.26,1.94 -0.8,2.75 -0.54,0.8 -1.41,1.4 -2.75,1.87 -1.27,0.47 -3.01,0.87 -5.15,1.21 -2.21,0.33 -4.89,0.47 -8.17,0.47 -3.15,0 -5.83,-0.14 -8.04,-0.47 -2.21,-0.34 -4.01,-0.74 -5.29,-1.21 -1.33,-0.47 -2.21,-1.07 -2.74,-1.87 -0.54,-0.81 -0.8,-1.68 -0.8,-2.75l0 -220.3 -71.32 0c-1,0 -1.94,-0.27 -2.81,-0.8 -0.87,-0.47 -1.54,-1.34 -2.07,-2.41 -0.47,-1.14 -0.94,-2.61 -1.28,-4.42 -0.33,-1.81 -0.47,-3.95 -0.47,-6.43 0,-2.48 0.14,-4.69 0.47,-6.56 0.34,-1.88 0.81,-3.42 1.28,-4.55 0.53,-1.21 1.2,-2.08 2.07,-2.55 0.87,-0.53 1.81,-0.8 2.81,-0.8l176.38 0c1,0 1.94,0.27 2.81,0.8 0.87,0.47 1.54,1.34 2.14,2.55 0.6,1.13 1.01,2.67 1.27,4.55 0.27,1.87 0.4,4.08 0.4,6.56zm70.45 234.36c0,1.07 -0.27,2.01 -0.81,2.75 -0.53,0.8 -1.4,1.4 -2.74,1.87 -1.28,0.47 -3.02,0.87 -5.16,1.21 -2.21,0.33 -4.89,0.47 -8.17,0.47 -3.15,0 -5.82,-0.14 -8.03,-0.47 -2.21,-0.34 -4.02,-0.74 -5.29,-1.21 -1.34,-0.47 -2.21,-1.07 -2.75,-1.87 -0.53,-0.74 -0.8,-1.68 -0.8,-2.75l0 -243.73c0,-1.07 0.27,-2.01 0.87,-2.75 0.6,-0.8 1.61,-1.4 2.94,-1.87 1.41,-0.47 3.15,-0.87 5.29,-1.21 2.15,-0.33 4.76,-0.47 7.77,-0.47 3.28,0 5.96,0.14 8.17,0.47 2.14,0.34 3.88,0.74 5.16,1.21 1.34,0.47 2.21,1.07 2.74,1.87 0.54,0.74 0.81,1.68 0.81,2.75l0 243.73z"/>
    <path class="fil0" d="M4768.98 1005.15c0,20.55 -2.41,39.04 -7.23,55.51 -4.89,16.47 -12.12,30.46 -21.7,42.05 -9.64,11.52 -21.69,20.42 -36.22,26.65 -14.53,6.23 -31.47,9.31 -50.83,9.31 -19.08,0 -35.55,-2.82 -49.48,-8.51 -13.99,-5.69 -25.44,-13.99 -34.55,-24.84 -9.11,-10.85 -15.87,-24.31 -20.29,-40.38 -4.49,-16.07 -6.7,-34.55 -6.7,-55.44 0,-20.02 2.42,-38.23 7.24,-54.57 4.88,-16.34 12.12,-30.2 21.83,-41.65 9.64,-11.38 21.76,-20.22 36.29,-26.45 14.46,-6.23 31.4,-9.31 50.82,-9.31 18.68,0 34.95,2.81 48.81,8.44 13.86,5.62 25.45,13.79 34.62,24.57 9.24,10.78 16.14,24.11 20.63,40.05 4.48,15.86 6.76,34.08 6.76,54.57zm-35.76 2.34c0,-14.33 -1.27,-27.72 -3.81,-40.04 -2.55,-12.32 -6.77,-23.04 -12.73,-32.14 -5.96,-9.04 -13.86,-16.14 -23.77,-21.23 -9.97,-5.09 -22.23,-7.63 -36.83,-7.63 -14.66,0 -26.91,2.74 -36.82,8.23 -9.91,5.5 -18.02,12.79 -24.18,21.9 -6.22,9.17 -10.64,19.82 -13.32,32.07 -2.68,12.19 -4.02,24.98 -4.02,38.44 0,14.93 1.27,28.59 3.75,41.11 2.48,12.59 6.63,23.37 12.52,32.48 5.83,9.04 13.73,16.07 23.57,21.09 9.85,5.02 22.23,7.57 37.1,7.57 14.8,0 27.18,-2.75 37.23,-8.24 10.04,-5.49 18.14,-12.86 24.3,-22.23 6.1,-9.31 10.52,-20.15 13.13,-32.41 2.61,-12.25 3.88,-25.24 3.88,-38.97zm281.3 113.43c0,2.61 -0.47,4.89 -1.34,6.7 -0.87,1.81 -2.01,3.35 -3.42,4.48 -1.4,1.21 -3.01,2.01 -4.75,2.55 -1.81,0.53 -3.55,0.8 -5.29,0.8l-11.18 0c-3.48,0 -6.56,-0.33 -9.24,-1.07 -2.61,-0.74 -5.09,-2.01 -7.5,-3.88 -2.34,-1.88 -4.76,-4.42 -7.1,-7.64 -2.34,-3.21 -4.89,-7.43 -7.57,-12.52l-77.54 -144.43c-4.08,-7.43 -8.16,-15.27 -12.25,-23.44 -4.15,-8.17 -7.97,-16.13 -11.52,-23.83l-0.4 0c0.27,9.37 0.47,19.01 0.6,28.86 0.14,9.77 0.21,19.55 0.21,29.19l0 153.27c0,0.94 -0.27,1.81 -0.81,2.68 -0.6,0.8 -1.54,1.47 -2.81,1.94 -1.34,0.47 -3.01,0.87 -5.16,1.21 -2.14,0.33 -4.88,0.47 -8.17,0.47 -3.34,0 -6.09,-0.14 -8.23,-0.47 -2.14,-0.34 -3.82,-0.74 -5.02,-1.21 -1.28,-0.47 -2.15,-1.14 -2.75,-1.94 -0.53,-0.87 -0.8,-1.74 -0.8,-2.68l0 -234.29c0,-5.22 1.47,-8.97 4.48,-11.18 2.95,-2.21 6.16,-3.35 9.71,-3.35l16.61 0c3.88,0 7.16,0.33 9.78,1 2.67,0.6 5.02,1.74 7.09,3.22 2.08,1.47 4.15,3.61 6.1,6.29 1.94,2.68 4.01,6.03 6.16,10.11l59.59 111.42c3.68,6.83 7.23,13.46 10.65,19.96 3.41,6.49 6.76,12.85 9.91,19.15 3.15,6.22 6.29,12.45 9.37,18.55 3.15,6.02 6.16,12.18 9.24,18.34l0.2 0c-0.26,-10.38 -0.46,-21.09 -0.53,-32.27 -0.07,-11.18 -0.07,-21.97 -0.07,-32.28l0 -137.6c0,-0.94 0.27,-1.81 0.8,-2.54 0.61,-0.81 1.54,-1.48 2.82,-2.08 1.34,-0.6 3.08,-1 5.15,-1.27 2.15,-0.27 4.96,-0.4 8.44,-0.4 3.01,0 5.62,0.13 7.83,0.4 2.21,0.27 3.95,0.67 5.16,1.27 1.27,0.6 2.14,1.27 2.75,2.08 0.53,0.73 0.8,1.6 0.8,2.54l0 233.89z"/>
   </g>
   <g>
    <g>
     <path class="fil1" d="M3199.96 641.72c-161.54,0 -292.48,-130.94 -292.48,-292.48 0,-158.83 126.61,-288.1 284.43,-292.4l0 -56.84c-189.22,4.28 -341.29,159 -341.29,349.24 0,192.94 156.4,349.34 349.34,349.34 189.39,0 343.58,-150.73 349.11,-338.77l-56.82 0c-5.56,156.64 -134.3,281.91 -292.29,281.91z"/>
     <path class="fil1" d="M3199.96 537.26c-103.84,0 -188.02,-84.18 -188.02,-188.02 0,-47.89 17.92,-91.61 47.41,-124.8l-48.92 -46.3c-40.9,45.27 -65.81,105.28 -65.81,171.1 0,141.02 114.32,255.34 255.34,255.34 141.02,0 255.34,-114.32 255.34,-255.34 0,-73.07 -30.7,-138.98 -79.91,-185.52l-47.62 47.63c37.03,34.34 60.2,83.41 60.2,137.89 0,103.84 -84.18,188.02 -188.01,188.02z"/>
     <path class="fil1" d="M3318.56 349.24c0,65.5 -53.1,118.6 -118.6,118.6 -65.5,0 -118.6,-53.1 -118.6,-118.6 0,-18.15 4.07,-35.36 11.36,-50.73l-32.07 -18.52c-10.39,20.85 -16.23,44.37 -16.23,69.25 0,85.91 69.63,155.54 155.54,155.54 85.9,0 155.54,-69.63 155.54,-155.54 0,-65.62 -40.65,-121.76 -98.13,-144.6l-9.58 36.04c41.68,18.39 70.77,60.08 70.77,108.56z"/>
    </g>
    <path class="fil0" d="M324.1 522.31c0,2.58 -0.59,4.81 -1.88,6.68 -1.29,1.99 -3.63,3.52 -7.26,4.81 -3.52,1.28 -8.32,2.22 -14.53,2.92 -6.21,0.71 -13.95,1.06 -23.32,1.06 -14.88,0 -25.54,-0.59 -32.1,-1.76 -6.57,-1.05 -11.25,-2.81 -14.07,-5.15 -2.81,-2.23 -5.03,-5.04 -6.67,-8.21l-134.28 -210.91 0 210.91c0,2.46 -0.71,4.69 -2.11,6.57 -1.29,1.75 -3.75,3.39 -7.15,4.57 -3.4,1.28 -7.97,2.22 -13.71,2.92 -5.62,0.71 -13,1.06 -21.79,1.06 -8.67,0 -15.94,-0.35 -21.8,-1.06 -5.86,-0.7 -10.42,-1.64 -13.82,-2.92 -3.4,-1.29 -5.86,-2.82 -7.38,-4.57 -1.53,-1.88 -2.23,-4.11 -2.23,-6.57l0 -418.65c0,-2.58 0.7,-4.69 2.23,-6.56 1.52,-1.76 3.98,-3.28 7.38,-4.45 3.4,-1.18 7.96,-2 13.82,-2.7 5.86,-0.7 13.13,-1.05 21.8,-1.05 8.79,0 16.17,0.35 21.79,1.05 5.74,0.7 10.31,1.52 13.71,2.7 3.4,1.17 5.86,2.69 7.15,4.45 1.4,1.87 2.11,3.98 2.11,6.56l0 189.23 130.06 -188.88c1.64,-2.93 3.51,-5.39 5.86,-7.38 2.22,-1.99 5.27,-3.52 8.9,-4.69 3.63,-1.05 8.32,-1.87 14.06,-2.34 5.74,-0.47 13.01,-0.7 21.91,-0.7 9.14,0 16.64,0.35 22.62,1.05 5.97,0.7 10.66,1.64 14.29,2.93 3.52,1.17 5.98,2.81 7.27,4.57 1.4,1.87 2.11,3.87 2.11,6.21 0,3.87 -1.06,7.85 -3.05,12.07 -2.11,4.1 -5.98,10.54 -11.72,19.57l-121.62 159.7 132.75 200.83c5.04,9.38 8.09,15.7 9.14,18.75 1.06,3.05 1.53,5.51 1.53,7.38zm297.27 -160.29c0,10.55 -2.35,18.28 -7.03,23.32 -4.69,5.04 -11.14,7.61 -19.45,7.61l-186.54 0c0,13.01 1.52,24.73 4.68,35.39 3.05,10.55 7.97,19.57 14.65,26.95 6.8,7.38 15.47,13.01 26.13,16.87 10.66,3.87 23.32,5.86 38.2,5.86 15.11,0 28.35,-1.05 39.84,-3.28 11.36,-2.23 21.32,-4.57 29.64,-7.26 8.32,-2.7 15.23,-5.04 20.74,-7.27 5.51,-2.22 9.96,-3.28 13.36,-3.28 2.11,0 3.86,0.35 5.15,1.17 1.41,0.82 2.58,2.23 3.52,4.34 0.82,1.99 1.52,4.92 1.87,8.67 0.36,3.75 0.47,8.55 0.47,14.18 0,5.03 -0.11,9.37 -0.35,12.89 -0.23,3.51 -0.59,6.56 -1.05,9.02 -0.47,2.58 -1.06,4.68 -2,6.32 -0.93,1.76 -2.1,3.4 -3.63,5.04 -1.52,1.53 -5.51,3.75 -12.18,6.56 -6.68,2.82 -15.12,5.51 -25.43,8.21 -10.31,2.69 -22.03,5.03 -35.27,7.03 -13.24,1.99 -27.42,3.04 -42.53,3.04 -27.3,0 -51.09,-3.39 -71.59,-10.31 -20.39,-6.79 -37.5,-17.22 -51.33,-31.17 -13.7,-13.94 -23.9,-31.63 -30.69,-52.84 -6.68,-21.33 -10.08,-46.28 -10.08,-74.87 0,-27.19 3.51,-51.68 10.66,-73.59 7.03,-21.79 17.34,-40.3 30.94,-55.54 13.47,-15.23 29.87,-26.83 49.21,-34.8 19.45,-8.08 41.24,-12.06 65.5,-12.06 25.66,0 47.57,3.75 65.73,11.36 18.28,7.5 33.16,18.05 44.88,31.4 11.6,13.36 20.27,29.3 25.77,47.57 5.51,18.28 8.21,38.2 8.21,59.76l0 13.71zm-83.66 -24.6c0.7,-24.26 -4.22,-43.36 -14.65,-57.18 -10.43,-13.95 -26.48,-20.86 -48.28,-20.86 -11.01,0 -20.62,2.11 -28.7,6.21 -8.2,4.1 -15,9.61 -20.39,16.64 -5.39,7.03 -9.49,15.23 -12.3,24.72 -2.93,9.61 -4.57,19.69 -5.04,30.47l129.36 0zm437.64 24.6c0,10.55 -2.35,18.28 -7.03,23.32 -4.69,5.04 -11.14,7.61 -19.45,7.61l-186.54 0c0,13.01 1.52,24.73 4.68,35.39 3.05,10.55 7.97,19.57 14.65,26.95 6.8,7.38 15.47,13.01 26.13,16.87 10.66,3.87 23.32,5.86 38.2,5.86 15.11,0 28.35,-1.05 39.84,-3.28 11.36,-2.23 21.32,-4.57 29.64,-7.26 8.32,-2.7 15.23,-5.04 20.74,-7.27 5.51,-2.22 9.96,-3.28 13.36,-3.28 2.11,0 3.86,0.35 5.15,1.17 1.41,0.82 2.58,2.23 3.52,4.34 0.82,1.99 1.52,4.92 1.87,8.67 0.36,3.75 0.47,8.55 0.47,14.18 0,5.03 -0.11,9.37 -0.35,12.89 -0.23,3.51 -0.59,6.56 -1.05,9.02 -0.47,2.58 -1.06,4.68 -2,6.32 -0.93,1.76 -2.1,3.4 -3.63,5.04 -1.52,1.53 -5.51,3.75 -12.18,6.56 -6.68,2.82 -15.12,5.51 -25.43,8.21 -10.31,2.69 -22.03,5.03 -35.27,7.03 -13.24,1.99 -27.42,3.04 -42.53,3.04 -27.3,0 -51.09,-3.39 -71.59,-10.31 -20.39,-6.79 -37.5,-17.22 -51.33,-31.17 -13.7,-13.94 -23.9,-31.63 -30.69,-52.84 -6.68,-21.33 -10.08,-46.28 -10.08,-74.87 0,-27.19 3.51,-51.68 10.66,-73.59 7.03,-21.79 17.34,-40.3 30.94,-55.54 13.47,-15.23 29.87,-26.83 49.21,-34.8 19.45,-8.08 41.24,-12.06 65.5,-12.06 25.66,0 47.57,3.75 65.73,11.36 18.28,7.5 33.16,18.05 44.88,31.4 11.6,13.36 20.27,29.3 25.77,47.57 5.51,18.28 8.21,38.2 8.21,59.76l0 13.71zm-83.66 -24.6c0.7,-24.26 -4.22,-43.36 -14.65,-57.18 -10.43,-13.95 -26.48,-20.86 -48.28,-20.86 -11.01,0 -20.62,2.11 -28.7,6.21 -8.2,4.1 -15,9.61 -20.39,16.64 -5.39,7.03 -9.49,15.23 -12.3,24.72 -2.93,9.61 -4.57,19.69 -5.04,30.47l129.36 0zm447.48 186.65c0,2.23 -0.7,4.22 -2.11,5.98 -1.29,1.75 -3.63,3.16 -6.8,4.33 -3.28,1.06 -7.73,1.99 -13.35,2.58 -5.63,0.58 -12.54,0.82 -20.74,0.82 -8.56,0 -15.59,-0.24 -21.21,-0.82 -5.63,-0.59 -10.08,-1.52 -13.36,-2.58 -3.16,-1.17 -5.51,-2.58 -6.8,-4.33 -1.4,-1.76 -2.1,-3.75 -2.1,-5.98l0 -174.7c0,-14.88 -1.06,-26.6 -3.29,-35.04 -2.1,-8.55 -5.27,-15.82 -9.37,-21.79 -4.1,-6.09 -9.49,-10.78 -15.93,-14.18 -6.57,-3.28 -14.06,-4.92 -22.74,-4.92 -11.01,0 -22.02,3.98 -33.27,12.07 -11.13,7.97 -22.85,19.68 -34.92,34.92l0 203.64c0,2.23 -0.7,4.22 -2.11,5.98 -1.29,1.75 -3.63,3.16 -7.03,4.33 -3.28,1.06 -7.73,1.99 -13.12,2.58 -5.51,0.58 -12.54,0.82 -20.98,0.82 -8.43,0 -15.46,-0.24 -20.97,-0.82 -5.39,-0.59 -9.84,-1.52 -13.12,-2.58 -3.4,-1.17 -5.74,-2.58 -7.03,-4.33 -1.41,-1.76 -2.11,-3.75 -2.11,-5.98l0 -306.52c0,-2.23 0.58,-4.22 1.76,-5.98 1.05,-1.75 3.16,-3.16 6.09,-4.33 3.04,-1.06 6.79,-1.99 11.48,-2.58 4.69,-0.59 10.66,-0.82 17.69,-0.82 7.39,0 13.36,0.23 18.17,0.82 4.8,0.59 8.55,1.52 11.24,2.58 2.58,1.17 4.46,2.58 5.63,4.33 1.17,1.76 1.76,3.75 1.76,5.98l0 35.38c16.87,-18.27 34.09,-31.87 51.67,-41.01 17.46,-9.13 35.74,-13.7 54.72,-13.7 20.85,0 38.43,3.39 52.73,10.31 14.29,6.79 25.77,16.17 34.68,28 8.79,11.72 15.11,25.54 18.98,41.36 3.87,15.82 5.86,34.8 5.86,56.95l0 189.23zm300.66 -86.71c0,17.34 -3.28,32.69 -9.84,46.05 -6.45,13.24 -15.71,24.26 -27.66,33.28 -11.95,8.9 -26.01,15.58 -42.3,20.03 -16.28,4.46 -33.86,6.68 -52.84,6.68 -11.48,0 -22.5,-0.82 -32.93,-2.57 -10.42,-1.76 -19.68,-3.99 -28,-6.68 -8.2,-2.58 -15.11,-5.28 -20.62,-8.09 -5.51,-2.81 -9.49,-5.39 -11.95,-7.85 -2.58,-2.46 -4.57,-6.21 -5.86,-11.36 -1.41,-5.04 -2.11,-12.66 -2.11,-22.74 0,-6.56 0.23,-11.83 0.7,-15.81 0.47,-3.99 1.17,-7.27 1.99,-9.61 0.94,-2.35 2.11,-3.99 3.52,-4.81 1.29,-0.82 3.05,-1.17 5.15,-1.17 2.47,0 6.21,1.41 11.14,4.34 4.92,2.93 11.01,6.09 18.39,9.49 7.27,3.51 15.82,6.79 25.55,9.72 9.72,3.05 20.85,4.57 33.15,4.57 7.74,0 14.77,-0.82 20.74,-2.46 6.1,-1.52 11.37,-3.86 15.82,-6.91 4.46,-2.93 7.85,-6.68 10.2,-11.37 2.22,-4.57 3.39,-9.84 3.39,-15.81 0,-6.92 -2.1,-12.78 -6.32,-17.7 -4.34,-4.92 -9.96,-9.25 -16.88,-12.89 -7.03,-3.63 -14.99,-7.03 -23.78,-10.31 -8.79,-3.16 -17.93,-6.68 -27.19,-10.66 -9.25,-3.87 -18.39,-8.32 -27.18,-13.36 -8.79,-5.04 -16.75,-11.13 -23.78,-18.51 -6.92,-7.26 -12.54,-16.17 -16.88,-26.36 -4.22,-10.31 -6.32,-22.74 -6.32,-37.15 0,-14.64 2.92,-28 8.67,-40.3 5.74,-12.19 13.94,-22.74 24.72,-31.41 10.9,-8.67 24.02,-15.46 39.49,-20.27 15.58,-4.8 32.92,-7.14 52.25,-7.14 9.73,0 18.99,0.7 28.13,1.99 9.02,1.4 17.34,3.16 24.6,5.15 7.38,2.11 13.59,4.22 18.63,6.68 5.04,2.35 8.67,4.45 10.9,6.09 2.23,1.76 3.75,3.4 4.69,5.16 0.82,1.76 1.52,3.75 1.99,6.21 0.47,2.34 0.94,5.39 1.29,8.91 0.35,3.51 0.47,7.96 0.47,13.24 0,6.21 -0.12,11.24 -0.47,15.11 -0.35,3.87 -0.94,7.03 -1.76,9.26 -0.82,2.34 -1.88,3.86 -3.28,4.68 -1.41,0.82 -3.05,1.18 -4.81,1.18 -2.1,0 -5.39,-1.18 -9.72,-3.64 -4.34,-2.34 -9.84,-4.92 -16.41,-7.61 -6.56,-2.7 -14.17,-5.28 -22.73,-7.62 -8.67,-2.46 -18.51,-3.63 -29.52,-3.63 -7.85,0 -14.65,0.82 -20.39,2.34 -5.74,1.64 -10.43,3.99 -14.18,6.92 -3.63,2.93 -6.44,6.44 -8.2,10.42 -1.88,3.99 -2.81,8.32 -2.81,12.78 0,7.14 2.22,13.12 6.56,17.92 4.33,4.81 10.07,9.03 17.22,12.66 7.03,3.63 15.23,7.15 24.26,10.31 9.02,3.16 18.28,6.68 27.53,10.43 9.26,3.75 18.52,8.2 27.54,13.24 9.02,5.04 17.22,11.25 24.25,18.51 7.15,7.38 12.89,16.05 17.23,26.25 4.33,10.19 6.56,22.26 6.56,36.2zm151.15 86.71c0,2.23 -0.7,4.22 -2.11,5.98 -1.29,1.75 -3.63,3.16 -7.03,4.33 -3.28,1.06 -7.73,1.99 -13.12,2.58 -5.51,0.58 -12.54,0.82 -20.98,0.82 -8.43,0 -15.46,-0.24 -20.97,-0.82 -5.39,-0.59 -9.84,-1.52 -13.12,-2.58 -3.4,-1.17 -5.74,-2.58 -7.03,-4.33 -1.41,-1.76 -2.11,-3.75 -2.11,-5.98l0 -305.82c0,-2.22 0.7,-4.22 2.11,-5.97 1.29,-1.76 3.63,-3.28 7.03,-4.46 3.28,-1.29 7.73,-2.22 13.12,-2.93 5.51,-0.7 12.54,-1.05 20.97,-1.05 8.44,0 15.47,0.35 20.98,1.05 5.39,0.71 9.84,1.64 13.12,2.93 3.4,1.18 5.74,2.7 7.03,4.46 1.41,1.75 2.11,3.75 2.11,5.97l0 305.82zm7.03 -410.57c0,17.46 -3.51,29.41 -10.66,36.09 -7.15,6.68 -20.27,9.96 -39.61,9.96 -19.45,0 -32.69,-3.16 -39.37,-9.61 -6.79,-6.44 -10.19,-18.04 -10.19,-34.68 0,-17.46 3.52,-29.53 10.55,-36.33 6.91,-6.67 20.15,-10.07 39.72,-10.07 19.21,0 32.34,3.28 39.25,9.84 6.91,6.44 10.31,18.04 10.31,34.8zm354.91 125.49c0,11.02 -1.29,19.1 -3.86,24.37 -2.46,5.28 -5.51,7.97 -9.26,7.97l-35.97 0c5.04,5.51 8.55,11.72 10.78,18.63 2.22,7.03 3.28,14.3 3.28,21.79 0,17.82 -3.05,33.63 -8.91,47.46 -5.97,13.83 -14.53,25.54 -25.66,35.03 -11.01,9.49 -24.49,16.64 -40.07,21.56 -15.7,4.92 -33.16,7.39 -52.38,7.39 -9.84,0 -19.21,-1.18 -28.12,-3.64 -9.02,-2.34 -15.82,-5.15 -20.62,-8.32 -2.81,2.93 -5.27,6.45 -7.38,10.67 -2.23,4.1 -3.28,8.67 -3.28,13.71 0,6.67 2.93,12.18 8.79,16.4 5.74,4.22 13.94,6.56 24.49,7.03l74.52 2.69c17.34,0.71 32.92,3.17 46.51,7.39 13.6,4.21 25.08,10.19 34.33,17.92 9.26,7.62 16.41,16.88 21.33,27.54 4.92,10.78 7.38,23.08 7.38,36.79 0,15.12 -3.4,29.29 -9.96,42.65 -6.68,13.48 -16.64,25.08 -29.88,34.92 -13.35,9.84 -29.99,17.57 -50.03,23.32 -20.04,5.74 -43.35,8.55 -70.18,8.55 -26.02,0 -48.28,-2.11 -66.79,-6.21 -18.4,-4.1 -33.51,-9.84 -45.23,-17.11 -11.84,-7.38 -20.39,-16.05 -25.78,-26.24 -5.39,-10.2 -8.08,-21.33 -8.08,-33.52 0,-7.49 0.93,-14.76 2.93,-21.55 1.99,-6.92 4.8,-13.48 8.55,-19.81 3.75,-6.21 8.44,-12.3 13.94,-17.92 5.51,-5.75 11.72,-11.25 18.87,-16.53 -9.84,-5.27 -17.46,-12.42 -22.85,-21.44 -5.39,-9.02 -8.09,-18.98 -8.09,-29.76 0,-13.47 3.17,-25.78 9.26,-36.91 6.21,-11.13 14.3,-21.09 24.14,-30.11 -8.09,-7.97 -14.41,-17.58 -19.22,-28.71 -4.8,-11.25 -7.26,-25.19 -7.26,-41.83 0,-17.93 3.16,-33.86 9.49,-47.92 6.21,-14.06 15,-25.9 26.24,-35.62 11.14,-9.73 24.61,-17.11 40.08,-22.27 15.58,-5.15 32.81,-7.73 51.55,-7.73 9.61,0 18.87,0.59 27.66,1.64 8.78,1.17 16.99,2.7 24.48,4.69l97.14 0c3.87,0 7.03,2.58 9.49,7.62 2.34,5.03 3.63,13.47 3.63,25.42zm-110.96 72.53c0,-16.4 -4.57,-29.29 -13.71,-38.43 -9.14,-9.14 -22.03,-13.71 -38.78,-13.71 -8.44,0 -15.94,1.41 -22.26,4.33 -6.45,2.82 -11.72,6.68 -16.06,11.6 -4.22,4.93 -7.38,10.67 -9.37,17.23 -2.11,6.56 -3.05,13.36 -3.05,20.39 0,15.58 4.57,27.88 13.71,36.91 9.14,9.02 21.8,13.59 38.08,13.59 8.67,0 16.29,-1.41 22.62,-4.1 6.44,-2.82 11.71,-6.56 15.93,-11.37 4.34,-4.8 7.5,-10.31 9.73,-16.64 2.11,-6.32 3.16,-12.89 3.16,-19.8zm20.27 244.3c0,-10.19 -4.1,-18.16 -12.3,-23.55 -8.32,-5.51 -19.57,-8.55 -33.98,-8.9l-61.52 -1.76c-5.85,4.33 -10.66,8.55 -14.17,12.54 -3.64,3.98 -6.45,7.73 -8.67,11.48 -2.11,3.63 -3.52,7.15 -4.22,10.55 -0.71,3.39 -1.06,7.03 -1.06,10.66 0,11.36 5.74,20.03 17.34,26.01 11.6,5.98 27.89,8.9 48.86,8.9 13.13,0 24.14,-1.28 33.05,-3.98 8.9,-2.58 16.05,-6.09 21.56,-10.43 5.5,-4.33 9.37,-9.14 11.71,-14.53 2.23,-5.39 3.4,-11.01 3.4,-16.99zm440.8 -31.75c0,2.23 -0.7,4.22 -2.11,5.98 -1.29,1.75 -3.63,3.16 -6.8,4.33 -3.28,1.06 -7.73,1.99 -13.35,2.58 -5.63,0.58 -12.54,0.82 -20.74,0.82 -8.56,0 -15.59,-0.24 -21.21,-0.82 -5.63,-0.59 -10.08,-1.52 -13.36,-2.58 -3.16,-1.17 -5.51,-2.58 -6.8,-4.33 -1.4,-1.76 -2.1,-3.75 -2.1,-5.98l0 -174.7c0,-14.88 -1.06,-26.6 -3.29,-35.04 -2.1,-8.55 -5.27,-15.82 -9.37,-21.79 -4.1,-6.09 -9.49,-10.78 -15.93,-14.18 -6.57,-3.28 -14.06,-4.92 -22.74,-4.92 -11.01,0 -22.02,3.98 -33.27,12.07 -11.13,7.97 -22.85,19.68 -34.92,34.92l0 203.64c0,2.23 -0.7,4.22 -2.11,5.98 -1.29,1.75 -3.63,3.16 -7.03,4.33 -3.28,1.06 -7.73,1.99 -13.12,2.58 -5.51,0.58 -12.54,0.82 -20.98,0.82 -8.43,0 -15.46,-0.24 -20.97,-0.82 -5.39,-0.59 -9.84,-1.52 -13.12,-2.58 -3.4,-1.17 -5.74,-2.58 -7.03,-4.33 -1.41,-1.76 -2.11,-3.75 -2.11,-5.98l0 -451.7c0,-2.34 0.7,-4.33 2.11,-6.21 1.29,-1.75 3.63,-3.39 7.03,-4.57 3.28,-1.29 7.73,-2.22 13.12,-2.93 5.51,-0.7 12.54,-1.05 20.97,-1.05 8.44,0 15.47,0.35 20.98,1.05 5.39,0.71 9.84,1.64 13.12,2.93 3.4,1.18 5.74,2.82 7.03,4.57 1.41,1.88 2.11,3.99 2.11,6.21l0 169.43c14.88,-14.64 30,-25.54 45.46,-32.8 15.47,-7.15 31.52,-10.78 48.28,-10.78 20.85,0 38.43,3.39 52.73,10.31 14.29,6.79 25.77,16.28 34.68,28.12 8.79,11.95 15.11,25.78 18.98,41.71 3.87,15.94 5.86,35.27 5.86,57.88l0 187.83zm259.65 -30.11c0,10.07 -0.59,17.81 -1.88,23.2 -1.28,5.39 -2.92,9.14 -5.03,11.25 -2,2.22 -5.04,4.21 -9.03,5.85 -4.1,1.76 -8.78,3.28 -14.17,4.46 -5.28,1.29 -11.13,2.22 -17.46,2.93 -6.33,0.7 -12.66,1.05 -19.1,1.05 -17.11,0 -31.99,-2.23 -44.64,-6.56 -12.54,-4.34 -22.97,-11.02 -31.29,-20.04 -8.2,-9.02 -14.29,-20.39 -18.16,-34.21 -3.87,-13.71 -5.86,-30 -5.86,-48.75l0 -156.89 -37.14 0c-4.34,0 -7.74,-2.69 -9.96,-8.08 -2.34,-5.39 -3.52,-14.42 -3.52,-27.07 0,-6.68 0.24,-12.3 0.82,-16.87 0.59,-4.57 1.53,-8.2 2.7,-10.9 1.05,-2.58 2.58,-4.45 4.33,-5.62 1.64,-1.18 3.75,-1.76 5.98,-1.76l36.79 0 0 -68.55c0,-2.22 0.59,-4.33 1.88,-6.21 1.29,-1.75 3.63,-3.28 6.91,-4.57 3.28,-1.29 7.85,-2.22 13.47,-2.81 5.63,-0.58 12.54,-0.82 20.86,-0.82 8.44,0 15.47,0.24 21.09,0.82 5.63,0.59 10.08,1.52 13.36,2.81 3.16,1.29 5.51,2.82 6.8,4.57 1.4,1.88 2.1,3.99 2.1,6.21l0 68.55 66.44 0c2.34,0 4.34,0.58 5.98,1.76 1.75,1.17 3.16,3.04 4.33,5.62 1.17,2.7 1.99,6.33 2.58,10.9 0.59,4.57 0.82,10.19 0.82,16.87 0,12.65 -1.17,21.68 -3.4,27.07 -2.34,5.39 -5.62,8.08 -9.96,8.08l-66.79 0 0 143.89c0,16.75 2.58,29.29 7.85,37.61 5.28,8.32 14.65,12.54 28.13,12.54 4.57,0 8.67,-0.35 12.3,-1.17 3.63,-0.82 6.91,-1.76 9.72,-2.82 2.93,-0.93 5.28,-1.87 7.27,-2.69 1.87,-0.82 3.75,-1.17 5.27,-1.17 1.41,0 2.7,0.35 3.99,1.17 1.17,0.82 2.22,2.34 2.92,4.8 0.59,2.35 1.29,5.63 1.88,9.73 0.59,4.22 0.82,9.37 0.82,15.82z"/>
    <path class="fil0" d="M6256.06 435.19c0,17.34 -3.28,32.69 -9.84,46.05 -6.45,13.24 -15.7,24.25 -27.65,33.27 -11.95,8.91 -26.02,15.59 -42.3,20.04 -16.29,4.45 -33.86,6.68 -52.85,6.68 -11.48,0 -22.49,-0.82 -32.92,-2.58 -10.43,-1.76 -19.69,-3.98 -28,-6.68 -8.21,-2.57 -15.12,-5.27 -20.63,-8.08 -5.5,-2.82 -9.49,-5.39 -11.95,-7.86 -2.58,-2.45 -4.57,-6.2 -5.86,-11.36 -1.41,-5.04 -2.11,-12.65 -2.11,-22.73 0,-6.56 0.24,-11.84 0.7,-15.82 0.47,-3.98 1.18,-7.27 2,-9.61 0.94,-2.34 2.11,-3.98 3.51,-4.8 1.29,-0.82 3.05,-1.17 5.16,-1.17 2.46,0 6.21,1.4 11.13,4.34 4.92,2.92 11.01,6.09 18.4,9.48 7.26,3.52 15.82,6.8 25.54,9.73 9.72,3.05 20.85,4.57 33.16,4.57 7.73,0 14.76,-0.82 20.74,-2.46 6.09,-1.53 11.37,-3.87 15.82,-6.92 4.45,-2.92 7.85,-6.68 10.19,-11.36 2.23,-4.57 3.4,-9.85 3.4,-15.82 0,-6.91 -2.11,-12.77 -6.33,-17.69 -4.34,-4.92 -9.96,-9.26 -16.87,-12.89 -7.03,-3.63 -15,-7.03 -23.79,-10.31 -8.78,-3.17 -17.93,-6.68 -27.18,-10.66 -9.26,-3.87 -18.4,-8.32 -27.19,-13.36 -8.78,-5.04 -16.75,-11.13 -23.78,-18.51 -6.92,-7.27 -12.54,-16.17 -16.87,-26.37 -4.22,-10.31 -6.34,-22.73 -6.34,-37.14 0,-14.65 2.94,-28.01 8.68,-40.31 5.74,-12.18 13.94,-22.73 24.72,-31.4 10.9,-8.67 24.02,-15.47 39.49,-20.27 15.58,-4.8 32.92,-7.15 52.26,-7.15 9.73,0 18.98,0.7 28.12,1.99 9.02,1.41 17.34,3.17 24.61,5.16 7.38,2.11 13.58,4.21 18.62,6.68 5.04,2.34 8.68,4.45 10.9,6.09 2.23,1.76 3.75,3.4 4.69,5.16 0.82,1.75 1.52,3.75 1.99,6.21 0.47,2.34 0.94,5.39 1.29,8.9 0.35,3.51 0.47,7.97 0.47,13.24 0,6.21 -0.12,11.25 -0.47,15.12 -0.35,3.87 -0.94,7.02 -1.76,9.26 -0.82,2.33 -1.87,3.86 -3.28,4.68 -1.4,0.82 -3.05,1.17 -4.8,1.17 -2.11,0 -5.39,-1.17 -9.73,-3.63 -4.34,-2.34 -9.84,-4.92 -16.4,-7.61 -6.56,-2.7 -14.18,-5.28 -22.73,-7.63 -8.68,-2.45 -18.52,-3.62 -29.53,-3.62 -7.85,0 -14.65,0.82 -20.39,2.34 -5.74,1.63 -10.43,3.98 -14.17,6.91 -3.64,2.93 -6.45,6.45 -8.21,10.43 -1.87,3.98 -2.81,8.32 -2.81,12.77 0,7.15 2.23,13.12 6.56,17.93 4.34,4.8 10.08,9.02 17.22,12.65 7.03,3.63 15.24,7.15 24.26,10.31 9.02,3.17 18.28,6.68 27.54,10.43 9.25,3.75 18.51,8.21 27.53,13.24 9.03,5.04 17.22,11.25 24.26,18.51 7.14,7.39 12.88,16.05 17.22,26.25 4.34,10.19 6.56,22.26 6.56,36.21zm-278.75 37.84c0,5.98 -0.12,10.9 -0.47,15 -0.35,3.99 -0.82,7.38 -1.41,10.2 -0.59,2.69 -1.29,4.92 -2.11,6.67 -0.82,1.76 -2.57,3.87 -5.27,6.56 -2.81,2.59 -7.5,5.86 -14.06,9.61 -6.68,3.76 -14.18,7.15 -22.73,10.2 -8.43,2.93 -17.58,5.39 -27.54,7.14 -9.96,1.88 -20.27,2.82 -30.82,2.82 -23.54,0 -44.4,-3.64 -62.56,-11.01 -18.28,-7.27 -33.52,-18.17 -45.93,-32.46 -12.3,-14.3 -21.68,-31.87 -27.89,-52.49 -6.33,-20.63 -9.49,-44.18 -9.49,-70.78 0,-30.69 3.87,-57.29 11.48,-79.55 7.74,-22.39 18.4,-40.9 32.11,-55.55 13.71,-14.64 30,-25.54 48.74,-32.69 18.75,-7.14 39.37,-10.66 61.87,-10.66 9.14,0 18.04,0.82 26.95,2.46 8.78,1.53 16.99,3.75 24.72,6.45 7.62,2.8 14.53,5.86 20.5,9.25 6.1,3.52 10.43,6.45 12.9,9.02 2.57,2.47 4.33,4.57 5.38,6.33 0.94,1.76 1.76,3.98 2.34,6.68 0.59,2.81 1.06,6.21 1.41,10.2 0.36,4.09 0.47,8.9 0.47,14.64 0,13.36 -1.06,22.73 -3.4,28.12 -2.34,5.39 -5.27,8.09 -8.9,8.09 -3.87,0 -8.08,-1.64 -12.42,-4.81 -4.34,-3.16 -9.49,-6.79 -15.47,-10.66 -5.86,-3.87 -13,-7.5 -21.21,-10.66 -8.2,-3.16 -18.04,-4.81 -29.52,-4.81 -22.5,0 -39.61,8.67 -51.56,25.9 -11.83,17.34 -17.81,42.65 -17.81,76.04 0,16.41 1.53,30.93 4.45,43.59 3.05,12.54 7.39,23.08 13.25,31.52 5.85,8.43 13.11,14.88 21.9,19.1 8.91,4.22 19.1,6.32 30.82,6.32 11.84,0 22.15,-1.75 30.7,-5.39 8.55,-3.51 16.05,-7.49 22.5,-11.83 6.32,-4.34 11.71,-8.32 16.17,-11.83 4.33,-3.64 7.96,-5.39 10.9,-5.39 2.1,0 3.74,0.58 5.15,1.75 1.4,1.17 2.46,3.29 3.28,6.33 0.82,3.17 1.41,7.15 1.88,11.95 0.46,4.81 0.7,11.02 0.7,18.63zm-311.8 -361c0,17.46 -3.51,29.41 -10.66,36.09 -7.15,6.67 -20.27,9.96 -39.6,9.96 -19.45,0 -32.69,-3.17 -39.37,-9.61 -6.8,-6.45 -10.19,-18.04 -10.19,-34.68 0,-17.46 3.51,-29.53 10.54,-36.33 6.91,-6.67 20.15,-10.07 39.72,-10.07 19.22,0 32.34,3.28 39.25,9.84 6.92,6.44 10.31,18.04 10.31,34.8zm-229.89 162.05l0 76.11 0 67.78c0,16.75 2.59,29.28 7.86,37.61 5.27,8.31 14.64,12.53 28.12,12.53 4.57,0 8.67,-0.35 12.3,-1.17 3.63,-0.82 6.91,-1.75 9.72,-2.81 2.94,-0.94 5.28,-1.88 7.27,-2.7 1.88,-0.81 3.75,-1.16 5.27,-1.16 1.41,0 2.7,0.35 3.98,1.16 1.18,0.82 2.24,2.34 2.94,4.81 0.58,2.34 1.28,5.62 1.87,9.73 0.58,4.21 0.82,9.36 0.82,15.81 0,10.08 -0.59,17.69 -1.76,22.85 -1.05,5.16 -2.69,8.91 -4.8,11.25 -1.99,2.46 -5.16,4.57 -9.26,6.21 -4.1,1.75 -8.9,3.28 -14.29,4.45 -5.27,1.29 -11.13,2.22 -17.46,2.93 -6.33,0.71 -12.66,1.06 -19.1,1.06 -17.11,0 -31.99,-2.23 -44.64,-6.57 -12.54,-4.33 -22.97,-11.01 -31.29,-20.03 -8.2,-9.03 -14.29,-20.39 -18.16,-34.22 -3.87,-13.7 -5.86,-29.99 -5.86,-48.74l0 -156.89 -37.14 0c-4.34,0 -7.73,-2.7 -9.96,-8.09 -2.34,-5.39 -3.51,-14.41 -3.51,-27.07 0,-6.67 0.23,-12.3 0.82,-16.87 0.58,-4.57 1.52,-8.2 2.69,-10.89 1.05,-2.58 2.58,-4.46 4.33,-5.63 1.64,-1.17 3.76,-1.75 5.98,-1.75l36.79 0 0 -68.55c0,-2.23 0.59,-4.34 1.87,-6.21 1.3,-1.76 3.64,-3.28 6.92,-4.57 3.28,-1.29 7.85,-2.23 13.47,-2.82 5.63,-0.58 12.54,-0.81 20.86,-0.81 8.44,0 15.47,0.23 21.09,0.81 5.63,0.59 10.08,1.53 13.36,2.82 3.16,1.29 5.51,2.81 6.8,4.57 1.4,1.87 2.1,3.98 2.1,6.21l0 43.19 0 25.36 82.88 0c2.22,0 4.32,0.61 5.97,1.75 1.73,1.19 3.25,3.07 4.33,5.63 1.13,2.7 2.12,6.33 2.7,10.89 0.58,4.56 0.82,10.2 0.82,16.87 0,12.66 -1.23,21.67 -3.52,27.07 -2.26,5.36 -5.63,8.09 -9.95,8.09l-83.23 0zm197.9 -70.3c9.5,0 16.29,2.1 20.04,6.21 3.75,4.1 5.63,10.07 5.63,17.8l0 294.1c0,2.23 -0.71,4.22 -2.11,5.98 -1.29,1.76 -3.63,3.16 -6.8,4.33 -3.28,1.06 -7.73,2 -13.35,2.59 -5.63,0.58 -12.54,0.82 -20.75,0.82 -8.55,0 -15.58,-0.24 -21.2,-0.82 -5.63,-0.59 -10.08,-1.53 -13.36,-2.59 -3.16,-1.17 -5.5,-2.57 -6.8,-4.33 -1.4,-1.76 -2.1,-3.75 -2.1,-5.98l0 -171.7 0 -76.11 0 -70.3 60.8 0zm-458.49 329.71l-37.14 108.27c-2.11,5.74 -7.62,9.84 -16.76,12.42 -9.13,2.46 -22.49,3.75 -40.07,3.75 -9.14,0 -16.52,-0.35 -21.91,-1.17 -5.5,-0.83 -9.61,-2.11 -12.42,-3.98 -2.69,-1.88 -4.21,-4.11 -4.45,-6.8 -0.23,-2.81 0.47,-6.1 2.11,-9.96l40.78 -102.53c-2.94,-1.4 -5.63,-3.51 -7.97,-6.33 -2.46,-2.92 -4.22,-5.97 -5.39,-9.13l-105.11 -281.68c-2.92,-7.97 -4.45,-14.18 -4.45,-18.4 0,-4.22 1.41,-7.5 4.1,-9.96 2.7,-2.34 7.39,-3.98 13.83,-4.92 6.56,-0.94 15.12,-1.41 25.9,-1.41 9.72,0 17.45,0.12 23.19,0.47 5.74,0.35 10.2,1.29 13.36,2.58 3.16,1.41 5.63,3.51 7.15,6.45 1.64,2.81 3.16,6.91 4.8,12.18l72.06 205.05 1.06 0 65.38 -209.15c1.4,-5.98 3.16,-9.96 5.39,-11.95 2.11,-1.87 5.74,-3.28 10.78,-4.22 5.04,-0.94 13.94,-1.41 26.48,-1.41 9.96,0 18.16,0.47 24.6,1.41 6.57,0.94 11.37,2.58 14.53,5.15 3.05,2.47 4.57,5.87 4.57,10.08 0,4.22 -0.81,9.26 -2.69,15l-101.71 300.19zm-263.28 -11.6c0,2.23 -0.71,4.22 -2.11,5.98 -1.29,1.76 -3.63,3.16 -7.03,4.33 -3.28,1.06 -7.73,2 -13.12,2.59 -5.51,0.58 -12.54,0.82 -20.98,0.82 -8.43,0 -15.47,-0.24 -20.97,-0.82 -5.39,-0.59 -9.85,-1.53 -13.12,-2.59 -3.4,-1.17 -5.74,-2.57 -7.04,-4.33 -1.4,-1.76 -2.1,-3.75 -2.1,-5.98l0 -451.69c0,-2.35 0.7,-4.33 2.1,-6.21 1.3,-1.76 3.64,-3.4 7.04,-4.57 3.27,-1.29 7.73,-2.23 13.12,-2.93 5.5,-0.7 12.54,-1.05 20.97,-1.05 8.44,0 15.47,0.35 20.98,1.05 5.39,0.7 9.84,1.64 13.12,2.93 3.4,1.17 5.74,2.81 7.03,4.57 1.4,1.88 2.11,3.86 2.11,6.21l0 451.69zm-257.78 -130.41l-32.92 0c-13.95,0 -25.78,1.06 -35.62,3.05 -9.85,2.11 -17.81,5.15 -24.02,9.37 -6.22,4.1 -10.67,9.03 -13.48,14.88 -2.93,5.86 -4.33,12.54 -4.33,20.04 0,12.89 4.1,22.97 12.18,30.23 8.09,7.38 19.34,11.01 33.75,11.01 12.07,0 23.2,-3.04 33.39,-9.25 10.2,-6.21 20.51,-15.23 31.05,-27.19l0 -52.14zm85.07 131.47c0,3.16 -1.17,5.62 -3.4,7.5 -2.34,1.87 -5.98,3.16 -10.9,3.98 -4.92,0.82 -12.18,1.18 -21.91,1.18 -10.31,0 -17.8,-0.36 -22.49,-1.18 -4.69,-0.82 -8.09,-2.11 -9.96,-3.98 -2,-1.88 -2.94,-4.34 -2.94,-7.5l0 -24.37c-12.65,13.47 -26.95,23.9 -43.12,31.4 -16.05,7.5 -33.97,11.25 -53.66,11.25 -16.17,0 -31.17,-2.11 -44.75,-6.33 -13.6,-4.22 -25.32,-10.54 -35.28,-18.87 -9.96,-8.43 -17.69,-18.74 -23.19,-31.05 -5.51,-12.41 -8.21,-26.83 -8.21,-43.23 0,-17.93 3.52,-33.39 10.43,-46.52 7.03,-13.24 17.46,-24.02 31.28,-32.69 13.83,-8.55 30.94,-14.88 51.56,-18.98 20.51,-4.1 44.41,-6.21 71.59,-6.21l29.88 0 0 -18.52c0,-9.61 -0.93,-18.04 -2.93,-25.31 -1.87,-7.14 -5.16,-13.23 -9.61,-18.04 -4.44,-4.8 -10.31,-8.32 -17.81,-10.66 -7.37,-2.22 -16.63,-3.4 -27.53,-3.4 -14.42,0 -27.3,1.65 -38.55,4.8 -11.36,3.17 -21.32,6.8 -30,10.67 -8.67,3.87 -15.93,7.5 -21.79,10.66 -5.86,3.17 -10.55,4.8 -14.18,4.8 -2.57,0 -4.8,-0.82 -6.68,-2.34 -1.99,-1.64 -3.63,-3.98 -4.8,-6.91 -1.29,-2.93 -2.22,-6.68 -2.93,-11.02 -0.7,-4.33 -1.05,-9.13 -1.05,-14.29 0,-7.15 0.58,-12.78 1.76,-16.87 1.05,-4.1 3.27,-7.74 6.44,-11.14 3.28,-3.27 8.79,-6.91 16.87,-10.89 7.97,-3.98 17.34,-7.73 28.12,-11.14 10.78,-3.5 22.5,-6.32 35.15,-8.43 12.77,-2.23 25.9,-3.28 39.37,-3.28 24.02,0 44.53,2.35 61.63,7.03 16.99,4.68 31.06,11.96 41.95,21.68 11.02,9.72 19.1,22.26 24.14,37.61 5.03,15.23 7.5,33.51 7.5,54.49l0 206.1zm-345.65 -1.06c0,2.23 -0.7,4.22 -2.11,5.98 -1.29,1.76 -3.63,3.16 -6.8,4.33 -3.28,1.06 -7.73,2 -13.35,2.59 -5.63,0.58 -12.55,0.82 -20.74,0.82 -8.56,0 -15.59,-0.24 -21.21,-0.82 -5.63,-0.59 -10.08,-1.53 -13.36,-2.59 -3.16,-1.17 -5.51,-2.57 -6.8,-4.33 -1.4,-1.76 -2.1,-3.75 -2.1,-5.98l0 -174.7c0,-14.88 -1.06,-26.6 -3.29,-35.03 -2.1,-8.56 -5.27,-15.82 -9.37,-21.79 -4.1,-6.1 -9.49,-10.78 -15.94,-14.19 -6.56,-3.27 -14.05,-4.92 -22.73,-4.92 -11.01,0 -22.02,3.99 -33.27,12.07 -11.13,7.97 -22.85,19.69 -34.92,34.92l0 203.64c0,2.23 -0.71,4.22 -2.11,5.98 -1.29,1.76 -3.63,3.16 -7.03,4.33 -3.28,1.06 -7.73,2 -13.12,2.59 -5.51,0.58 -12.54,0.82 -20.98,0.82 -8.43,0 -15.47,-0.24 -20.97,-0.82 -5.39,-0.59 -9.85,-1.53 -13.12,-2.59 -3.4,-1.17 -5.74,-2.57 -7.04,-4.33 -1.4,-1.76 -2.1,-3.75 -2.1,-5.98l0 -306.51c0,-2.24 0.58,-4.22 1.75,-5.98 1.06,-1.76 3.17,-3.17 6.1,-4.34 3.04,-1.05 6.79,-1.99 11.48,-2.58 4.69,-0.58 10.66,-0.82 17.69,-0.82 7.38,0 13.36,0.24 18.16,0.82 4.81,0.59 8.56,1.53 11.25,2.58 2.58,1.17 4.45,2.58 5.63,4.34 1.17,1.76 1.76,3.74 1.76,5.98l0 35.38c16.87,-18.28 34.09,-31.87 51.67,-41.01 17.46,-9.14 35.73,-13.71 54.72,-13.71 20.86,0 38.43,3.4 52.73,10.31 14.28,6.79 25.77,16.17 34.67,28 8.79,11.72 15.12,25.55 18.99,41.37 3.86,15.81 5.86,34.8 5.86,56.94l0 189.23zm-553.64 -348.23l-0.35 0 -61.87 188.99 124.67 0 -62.45 -188.99zm203.87 326.2c2.7,8.21 4.46,14.77 5.16,19.58 0.7,4.8 -0.24,8.43 -2.69,10.89 -2.58,2.34 -7.03,3.87 -13.48,4.46 -6.33,0.58 -15.23,0.82 -26.36,0.82 -11.72,0 -20.86,-0.12 -27.3,-0.47 -6.56,-0.35 -11.49,-1.06 -15,-2.12 -3.4,-1.05 -5.74,-2.45 -7.15,-4.33 -1.4,-1.76 -2.57,-4.22 -3.4,-7.15l-29.17 -89.28 -167.55 0 -28.01 86.82c-0.94,3.28 -2.11,5.98 -3.63,8.08 -1.41,2.24 -3.87,3.87 -7.15,5.16 -3.28,1.29 -7.97,2.11 -14.06,2.58 -6.09,0.47 -14.06,0.71 -23.91,0.71 -10.54,0 -18.74,-0.36 -24.72,-1.06 -5.97,-0.71 -10.07,-2.35 -12.3,-4.92 -2.34,-2.7 -3.16,-6.45 -2.46,-11.25 0.7,-4.8 2.46,-11.13 5.16,-19.22l136.85 -394.28c1.29,-3.87 2.93,-7.03 4.8,-9.38 1.77,-2.45 4.69,-4.21 8.68,-5.5 4.1,-1.29 9.61,-2.11 16.75,-2.46 7.03,-0.35 16.4,-0.47 28.12,-0.47 13.48,0 24.26,0.12 32.22,0.47 8.09,0.35 14.3,1.17 18.75,2.46 4.46,1.29 7.62,3.17 9.61,5.62 1.87,2.58 3.63,5.98 4.92,10.31l137.32 393.93z"/>
   </g>
   <g>
    <polygon class="fil1" points="144.77,969.2 1060.47,969.2 1060.47,1033.61 144.77,1033.61 "/>
    <polygon class="fil1" points="5195.6,969.2 6111.29,969.2 6111.29,1033.61 5195.6,1033.61 "/>
   </g>
  </g>
 </g>
</svg>
